<svg width="21" height="24" viewBox="0 0 21 24" fill="none" xmlns="http://www.w3.org/2000/svg">
<path fill-rule="evenodd" clip-rule="evenodd" d="M5.61663 20.8203C6.03863 20.8203 6.38163 21.1633 6.38163 21.5853C6.38163 22.0073 6.03863 22.3493 5.61663 22.3493C5.19463 22.3493 4.85263 22.0073 4.85263 21.5853C4.85263 21.1633 5.19463 20.8203 5.61663 20.8203Z" stroke="#222222" stroke-width="1.5" stroke-linecap="round" stroke-linejoin="round"/>
<path fill-rule="evenodd" clip-rule="evenodd" d="M16.869 20.8203C17.291 20.8203 17.634 21.1633 17.634 21.5853C17.634 22.0073 17.291 22.3493 16.869 22.3493C16.447 22.3493 16.104 22.0073 16.104 21.5853C16.104 21.1633 16.447 20.8203 16.869 20.8203Z" stroke="#222222" stroke-width="1.5" stroke-linecap="round" stroke-linejoin="round"/>
<path d="M0.944244 4.25L3.02424 4.61L3.98724 16.083C4.06524 17.018 4.84624 17.736 5.78424 17.736H16.6962C17.5922 17.736 18.3522 17.078 18.4812 16.19L19.4302 9.632C19.5472 8.823 18.9202 8.099 18.1032 8.099H3.35824" stroke="#222222" stroke-width="1.5" stroke-linecap="round" stroke-linejoin="round"/>
<path d="M12.3197 11.7969H15.0927" stroke="#222222" stroke-width="1.5" stroke-linecap="round" stroke-linejoin="round"/>
<circle cx="13.8426" cy="3.77812" r="3.0269" fill="#09A66D"/>
</svg>
